<?xml version="1.0" encoding="UTF-8"?>
<svg width="100%" height="100%" viewBox="0 0 400 300" xmlns="http://www.w3.org/2000/svg">
  <!-- Light gray background -->
  <rect width="100%" height="100%" fill="#f5f5f5"/>
  
  <!-- Sofa icon -->
  <g transform="translate(150, 100)" fill="#999">
    <path d="M100 50H0c-5.5 0-10 4.5-10 10v30c0 5.5 4.5 10 10 10h100c5.5 0 10-4.5 10-10V60c0-5.5-4.5-10-10-10zm-90 40V70h80v20H10zm90-30H0V40c0-5.5 4.5-10 10-10h80c5.5 0 10 4.5 10 10v20z"/>
  </g>
  
  <!-- "Image Not Available" text -->
  <text x="50%" y="220" text-anchor="middle" font-family="Arial, sans-serif" font-size="16" fill="#666">
    Image Not Available
  </text>
</svg> 